<mxfile host="app.diagrams.net" modified="2023-11-22T01:26:06.879Z" agent="Mozilla/5.0 (Windows NT 10.0; Win64; x64) AppleWebKit/537.36 (KHTML, like Gecko) Chrome/119.0.0.0 Safari/537.36" etag="cTpQ6JyYlh35-1DkBFom" version="22.1.3" type="github">
  <diagram name="第 1 页" id="jlJl0Ko0GWoikbYAyYql">
    <mxGraphModel dx="1834" dy="1266" grid="0" gridSize="10" guides="1" tooltips="1" connect="1" arrows="1" fold="1" page="0" pageScale="1" pageWidth="827" pageHeight="1169" math="0" shadow="0">
      <root>
        <mxCell id="0" />
        <mxCell id="1" parent="0" />
        <mxCell id="VpLYDpvK1sNNoDS3lnSt-1" value="&lt;p style=&quot;line-height: 120%;&quot;&gt;&lt;font face=&quot;Times New Roman&quot; style=&quot;font-size: 20px;&quot;&gt;&lt;b&gt;UI/UX&lt;/b&gt;&lt;/font&gt;&lt;/p&gt;" style="rounded=1;whiteSpace=wrap;html=1;" parent="1" vertex="1">
          <mxGeometry x="-392" y="-128" width="120" height="60" as="geometry" />
        </mxCell>
        <mxCell id="VpLYDpvK1sNNoDS3lnSt-8" value="&lt;p style=&quot;line-height: 120%;&quot;&gt;&lt;font face=&quot;Times New Roman&quot; style=&quot;font-size: 15px;&quot;&gt;Project data struct define&lt;/font&gt;&lt;/p&gt;" style="rounded=1;whiteSpace=wrap;html=1;fillColor=#cdeb8b;strokeColor=#36393d;" parent="1" vertex="1">
          <mxGeometry x="-381" y="106" width="120" height="42" as="geometry" />
        </mxCell>
        <mxCell id="VpLYDpvK1sNNoDS3lnSt-9" value="&lt;p style=&quot;line-height: 120%;&quot;&gt;&lt;font face=&quot;Times New Roman&quot; style=&quot;font-size: 15px;&quot;&gt;Global config define&lt;/font&gt;&lt;/p&gt;" style="rounded=1;whiteSpace=wrap;html=1;fillColor=#cdeb8b;strokeColor=#36393d;" parent="1" vertex="1">
          <mxGeometry x="-208" y="223" width="120" height="42" as="geometry" />
        </mxCell>
        <mxCell id="VpLYDpvK1sNNoDS3lnSt-10" value="&lt;p style=&quot;line-height: 120%;&quot;&gt;&lt;font face=&quot;Times New Roman&quot; style=&quot;font-size: 15px;&quot;&gt;Config file&lt;/font&gt;&lt;/p&gt;" style="rounded=1;whiteSpace=wrap;html=1;fillColor=#cdeb8b;strokeColor=#36393d;" parent="1" vertex="1">
          <mxGeometry x="-205" y="159" width="120" height="42" as="geometry" />
        </mxCell>
        <mxCell id="VpLYDpvK1sNNoDS3lnSt-11" value="&lt;p style=&quot;line-height: 120%;&quot;&gt;&lt;font face=&quot;Times New Roman&quot; style=&quot;font-size: 15px;&quot;&gt;Save project&lt;/font&gt;&lt;/p&gt;" style="rounded=1;whiteSpace=wrap;html=1;fillColor=#cdeb8b;strokeColor=#36393d;" parent="1" vertex="1">
          <mxGeometry x="-205" y="95" width="120" height="42" as="geometry" />
        </mxCell>
        <mxCell id="VpLYDpvK1sNNoDS3lnSt-12" value="&lt;p style=&quot;line-height: 120%;&quot;&gt;&lt;font face=&quot;Times New Roman&quot; style=&quot;font-size: 15px;&quot;&gt;Load project&lt;/font&gt;&lt;/p&gt;" style="rounded=1;whiteSpace=wrap;html=1;fillColor=#cdeb8b;strokeColor=#36393d;" parent="1" vertex="1">
          <mxGeometry x="-205" y="30" width="120" height="42" as="geometry" />
        </mxCell>
        <mxCell id="VpLYDpvK1sNNoDS3lnSt-13" value="&lt;p style=&quot;line-height: 120%;&quot;&gt;&lt;font face=&quot;Times New Roman&quot; style=&quot;font-size: 15px;&quot;&gt;Load GT project&lt;/font&gt;&lt;/p&gt;" style="rounded=1;whiteSpace=wrap;html=1;fillColor=#cdeb8b;strokeColor=#36393d;" parent="1" vertex="1">
          <mxGeometry x="-205" y="-30" width="120" height="42" as="geometry" />
        </mxCell>
        <mxCell id="VpLYDpvK1sNNoDS3lnSt-14" value="&lt;p style=&quot;line-height: 120%;&quot;&gt;&lt;font face=&quot;Times New Roman&quot; style=&quot;font-size: 15px;&quot;&gt;Model&lt;/font&gt;&lt;/p&gt;" style="rounded=1;whiteSpace=wrap;html=1;fillColor=#cdeb8b;strokeColor=#36393d;" parent="1" vertex="1">
          <mxGeometry x="-29" y="55" width="120" height="42" as="geometry" />
        </mxCell>
        <mxCell id="VpLYDpvK1sNNoDS3lnSt-15" value="&lt;p style=&quot;line-height: 120%;&quot;&gt;&lt;font face=&quot;Times New Roman&quot; style=&quot;font-size: 15px;&quot;&gt;Project management&lt;/font&gt;&lt;/p&gt;" style="rounded=1;whiteSpace=wrap;html=1;fillColor=#cdeb8b;strokeColor=#36393d;" parent="1" vertex="1">
          <mxGeometry x="-29" y="-1" width="120" height="42" as="geometry" />
        </mxCell>
        <mxCell id="VpLYDpvK1sNNoDS3lnSt-16" value="&lt;p style=&quot;line-height: 120%;&quot;&gt;&lt;font face=&quot;Times New Roman&quot; style=&quot;font-size: 15px;&quot;&gt;File explorer&lt;/font&gt;&lt;/p&gt;" style="rounded=1;whiteSpace=wrap;html=1;fillColor=#cdeb8b;strokeColor=#36393d;" parent="1" vertex="1">
          <mxGeometry x="-29" y="-57" width="120" height="42" as="geometry" />
        </mxCell>
        <mxCell id="VpLYDpvK1sNNoDS3lnSt-17" value="&lt;p style=&quot;line-height: 120%;&quot;&gt;&lt;font face=&quot;Times New Roman&quot; style=&quot;font-size: 15px;&quot;&gt;experiment edit&lt;/font&gt;&lt;/p&gt;" style="rounded=1;whiteSpace=wrap;html=1;fillColor=#cdeb8b;strokeColor=#36393d;" parent="1" vertex="1">
          <mxGeometry x="-29" y="171" width="120" height="42" as="geometry" />
        </mxCell>
        <mxCell id="VpLYDpvK1sNNoDS3lnSt-18" value="&lt;p style=&quot;line-height: 120%;&quot;&gt;&lt;font face=&quot;Times New Roman&quot; style=&quot;font-size: 15px;&quot;&gt;param edit&lt;/font&gt;&lt;/p&gt;" style="rounded=1;whiteSpace=wrap;html=1;fillColor=#cdeb8b;strokeColor=#36393d;" parent="1" vertex="1">
          <mxGeometry x="-29" y="114" width="120" height="42" as="geometry" />
        </mxCell>
        <mxCell id="VpLYDpvK1sNNoDS3lnSt-19" value="&lt;p style=&quot;line-height: 120%;&quot;&gt;&lt;font face=&quot;Times New Roman&quot; style=&quot;font-size: 15px;&quot;&gt;Tool edit&lt;/font&gt;&lt;/p&gt;" style="rounded=1;whiteSpace=wrap;html=1;fillColor=#cdeb8b;strokeColor=#36393d;" parent="1" vertex="1">
          <mxGeometry x="-29" y="228" width="120" height="42" as="geometry" />
        </mxCell>
        <mxCell id="VpLYDpvK1sNNoDS3lnSt-20" value="&lt;p style=&quot;line-height: 120%;&quot;&gt;&lt;font face=&quot;Times New Roman&quot; style=&quot;font-size: 15px;&quot;&gt;Scenarios(group)&lt;/font&gt;&lt;/p&gt;" style="rounded=1;whiteSpace=wrap;html=1;" parent="1" vertex="1">
          <mxGeometry x="-29" y="291" width="120" height="42" as="geometry" />
        </mxCell>
        <mxCell id="VpLYDpvK1sNNoDS3lnSt-21" value="&lt;p style=&quot;line-height: 120%;&quot;&gt;&lt;font face=&quot;Times New Roman&quot;&gt;&lt;span style=&quot;font-size: 15px;&quot;&gt;Tcleanup&lt;/span&gt;&lt;/font&gt;&lt;/p&gt;" style="rounded=1;whiteSpace=wrap;html=1;fillColor=#cdeb8b;strokeColor=#36393d;" parent="1" vertex="1">
          <mxGeometry x="139" y="-10" width="120" height="42" as="geometry" />
        </mxCell>
        <mxCell id="VpLYDpvK1sNNoDS3lnSt-22" value="&lt;p style=&quot;line-height: 120%;&quot;&gt;&lt;font face=&quot;Times New Roman&quot; style=&quot;font-size: 15px;&quot;&gt;Tgob&lt;/font&gt;&lt;/p&gt;" style="rounded=1;whiteSpace=wrap;html=1;fillColor=#cdeb8b;strokeColor=#36393d;" parent="1" vertex="1">
          <mxGeometry x="139" y="171" width="120" height="42" as="geometry" />
        </mxCell>
        <mxCell id="VpLYDpvK1sNNoDS3lnSt-23" value="&lt;p style=&quot;line-height: 120%;&quot;&gt;&lt;font face=&quot;Times New Roman&quot; style=&quot;font-size: 15px;&quot;&gt;Tsub&lt;/font&gt;&lt;/p&gt;" style="rounded=1;whiteSpace=wrap;html=1;fillColor=#cdeb8b;strokeColor=#36393d;" parent="1" vertex="1">
          <mxGeometry x="139" y="106" width="120" height="42" as="geometry" />
        </mxCell>
        <mxCell id="VpLYDpvK1sNNoDS3lnSt-24" value="&lt;p style=&quot;line-height: 120%;&quot;&gt;&lt;font face=&quot;Times New Roman&quot;&gt;&lt;span style=&quot;font-size: 15px;&quot;&gt;Tpreprocessor&lt;/span&gt;&lt;/font&gt;&lt;/p&gt;" style="rounded=1;whiteSpace=wrap;html=1;fillColor=#cdeb8b;strokeColor=#36393d;" parent="1" vertex="1">
          <mxGeometry x="139" y="48" width="120" height="42" as="geometry" />
        </mxCell>
        <mxCell id="VpLYDpvK1sNNoDS3lnSt-25" value="&lt;p style=&quot;line-height: 120%;&quot;&gt;&lt;font face=&quot;Times New Roman&quot; style=&quot;font-size: 15px;&quot;&gt;twblm&lt;/font&gt;&lt;/p&gt;" style="rounded=1;whiteSpace=wrap;html=1;fillColor=#cdeb8b;strokeColor=#36393d;" parent="1" vertex="1">
          <mxGeometry x="139" y="236" width="120" height="42" as="geometry" />
        </mxCell>
        <mxCell id="VpLYDpvK1sNNoDS3lnSt-26" value="&lt;p style=&quot;line-height: 120%;&quot;&gt;&lt;font face=&quot;Times New Roman&quot;&gt;&lt;span style=&quot;font-size: 15px;&quot;&gt;SGE&lt;/span&gt;&lt;/font&gt;&lt;/p&gt;" style="rounded=1;whiteSpace=wrap;html=1;fillColor=#cdeb8b;strokeColor=#36393d;" parent="1" vertex="1">
          <mxGeometry x="292" y="101" width="120" height="42" as="geometry" />
        </mxCell>
        <mxCell id="VpLYDpvK1sNNoDS3lnSt-27" value="&lt;p style=&quot;line-height: 120%;&quot;&gt;&lt;font face=&quot;Times New Roman&quot;&gt;&lt;span style=&quot;font-size: 15px;&quot;&gt;LSF&lt;/span&gt;&lt;/font&gt;&lt;/p&gt;" style="rounded=1;whiteSpace=wrap;html=1;fillColor=#cdeb8b;strokeColor=#36393d;" parent="1" vertex="1">
          <mxGeometry x="292" y="34" width="120" height="42" as="geometry" />
        </mxCell>
        <mxCell id="VpLYDpvK1sNNoDS3lnSt-29" value="&lt;p style=&quot;line-height: 120%;&quot;&gt;&lt;font face=&quot;Times New Roman&quot;&gt;&lt;span style=&quot;font-size: 15px;&quot;&gt;Local&lt;/span&gt;&lt;/font&gt;&lt;/p&gt;" style="rounded=1;whiteSpace=wrap;html=1;fillColor=#cdeb8b;strokeColor=#36393d;" parent="1" vertex="1">
          <mxGeometry x="294" y="168" width="120" height="42" as="geometry" />
        </mxCell>
        <mxCell id="VpLYDpvK1sNNoDS3lnSt-30" value="&lt;p style=&quot;line-height: 120%;&quot;&gt;&lt;font face=&quot;Times New Roman&quot; style=&quot;font-size: 15px;&quot;&gt;new project&lt;/font&gt;&lt;/p&gt;" style="rounded=1;whiteSpace=wrap;html=1;fillColor=#cdeb8b;strokeColor=#36393d;" parent="1" vertex="1">
          <mxGeometry x="-208" y="291" width="120" height="42" as="geometry" />
        </mxCell>
        <mxCell id="VpLYDpvK1sNNoDS3lnSt-31" value="&lt;p style=&quot;line-height: 120%;&quot;&gt;&lt;font face=&quot;Times New Roman&quot;&gt;&lt;span style=&quot;font-size: 15px;&quot;&gt;tool&amp;nbsp; interface&lt;/span&gt;&lt;/font&gt;&lt;/p&gt;" style="rounded=1;whiteSpace=wrap;html=1;fillColor=#cdeb8b;strokeColor=#36393d;" parent="1" vertex="1">
          <mxGeometry x="139" y="291" width="120" height="42" as="geometry" />
        </mxCell>
        <mxCell id="VpLYDpvK1sNNoDS3lnSt-32" value="&lt;p style=&quot;line-height: 120%;&quot;&gt;&lt;font face=&quot;Times New Roman&quot;&gt;&lt;span style=&quot;font-size: 15px;&quot;&gt;edit&amp;nbsp; interface&lt;/span&gt;&lt;/font&gt;&lt;/p&gt;" style="rounded=1;whiteSpace=wrap;html=1;" parent="1" vertex="1">
          <mxGeometry x="-29" y="354" width="120" height="42" as="geometry" />
        </mxCell>
        <mxCell id="bgKED_kbYVqUoTpN10b9-1" value="&lt;p style=&quot;line-height: 120%;&quot;&gt;&lt;font face=&quot;Times New Roman&quot; style=&quot;font-size: 15px;&quot;&gt;view&lt;/font&gt;&lt;/p&gt;" style="rounded=1;whiteSpace=wrap;html=1;fillColor=#cce5ff;strokeColor=#36393d;" vertex="1" parent="1">
          <mxGeometry x="-205" y="359" width="120" height="42" as="geometry" />
        </mxCell>
      </root>
    </mxGraphModel>
  </diagram>
</mxfile>
